<?xml version="1.0" standalone="no"?>
<!DOCTYPE svg PUBLIC "-//W3C//DTD SVG 20010904//EN"
 "http://www.w3.org/TR/2001/REC-SVG-20010904/DTD/svg10.dtd">
<svg version="1.0" xmlns="http://www.w3.org/2000/svg"
 width="640.000000pt" height="640.000000pt" viewBox="0 0 640.000000 640.000000"
 preserveAspectRatio="xMidYMid meet">
<metadata>
Created by potrace 1.14, written by Peter Selinger 2001-2017
</metadata>
<g transform="translate(0.000000,640.000000) scale(0.100000,-0.100000)"
fill="#000000" stroke="none">
<path d="M0 3200 l0 -3200 3200 0 3200 0 0 3200 0 3200 -3200 0 -3200 0 0
-3200z m3285 1245 c186 -24 285 -56 360 -115 71 -57 95 -98 105 -184 5 -45 12
-63 29 -75 69 -48 91 -75 106 -124 24 -82 45 -225 45 -313 0 -68 3 -84 20 -99
17 -15 22 -16 37 -4 28 21 106 87 128 108 88 83 228 100 295 36 57 -55 111
-207 113 -320 1 -47 -4 -69 -22 -102 -34 -59 -92 -78 -208 -69 -75 5 -85 4
-103 -14 -15 -15 -18 -25 -11 -38 6 -12 1 -49 -16 -117 -13 -55 -32 -145 -42
-200 -9 -55 -19 -95 -22 -90 -3 6 -4 4 -3 -3 9 -35 -66 -322 -104 -397 -34
-69 -92 -145 -148 -193 -82 -73 -258 -181 -272 -168 -3 3 -3 7 -1 9 64 46 109
93 109 113 0 31 -67 75 -159 104 -36 12 -95 30 -131 42 -36 11 -69 24 -74 29
-5 4 3 21 18 39 31 38 31 41 7 71 -16 20 -22 22 -44 12 -14 -7 -27 -24 -31
-40 -12 -47 -64 -93 -106 -93 -73 0 -96 38 -108 175 -7 89 -7 90 -35 93 -21 3
-39 -7 -75 -38 -67 -59 -104 -76 -159 -71 -35 3 -47 84 -21 138 8 17 8 26 -2
38 -14 17 -61 20 -77 4 -7 -7 -58 14 -169 70 -87 44 -182 89 -210 101 -50 21
-52 24 -67 78 -9 31 -17 81 -19 111 -3 51 -1 55 22 61 31 7 32 23 1 64 l-24
31 -141 1 c-268 1 -356 58 -356 230 0 96 32 149 121 202 45 27 82 29 142 9 26
-10 73 -17 103 -17 53 0 56 1 68 33 7 17 16 56 20 85 7 57 49 182 95 284 41
93 82 135 147 154 59 17 63 25 79 136 3 26 16 59 27 73 31 39 112 88 197 119
41 15 81 31 90 36 26 15 345 12 476 -5z m-1381 -760 c4 -10 -3 -17 -22 -21
-15 -3 -38 -10 -51 -15 -38 -16 -36 -3 6 25 43 30 58 32 67 11z m411 -1040
c117 -48 182 -88 255 -154 25 -22 52 -43 60 -46 8 -3 23 -18 32 -35 22 -39 74
-70 117 -70 19 0 60 5 92 12 75 15 104 -1 113 -65 5 -30 18 -58 40 -83 30 -35
38 -39 78 -38 25 0 68 9 95 19 50 18 52 18 100 -2 26 -12 75 -28 108 -38 70
-20 126 -47 145 -70 13 -15 7 -25 -57 -86 -77 -73 -162 -122 -287 -164 -138
-46 -426 -29 -545 33 -246 127 -312 175 -398 293 -95 129 -129 244 -121 404 4
81 7 90 32 112 15 12 28 23 29 23 2 0 52 -20 112 -45z m986 -925 c-4 -35 -11
-55 -18 -54 -7 1 -24 2 -38 3 -17 0 -32 12 -45 34 -11 17 -20 34 -20 37 0 9
115 48 121 41 3 -3 3 -31 0 -61z m132 48 c-2 -13 0 -60 5 -105 6 -62 5 -83 -4
-83 -36 0 -47 83 -23 173 10 40 29 52 22 15z m-344 -74 c11 -25 9 -29 -31 -63
-23 -20 -44 -35 -46 -33 -12 6 -4 105 9 113 27 17 56 10 68 -17z m200 -95 c77
-16 121 -54 153 -131 37 -91 44 -152 24 -222 -15 -52 -20 -58 -68 -82 -28 -14
-75 -42 -105 -61 -49 -33 -55 -35 -85 -23 -67 26 -100 54 -154 127 -84 114
-99 165 -73 244 17 48 74 116 117 139 42 22 115 26 191 9z m377 -293 c16 -10
20 -14 9 -11 -11 4 -33 9 -50 12 -41 8 -67 22 -60 33 6 10 49 -4 101 -34z
m-926 -24 c-68 -34 -96 -53 -100 -69 -3 -12 -30 -42 -62 -65 -226 -171 -400
-369 -507 -578 -42 -81 -161 -347 -161 -358 0 -15 -32 -52 -40 -47 -15 9 77
261 142 388 33 64 92 159 130 210 79 102 320 346 413 418 66 51 241 149 265
148 8 0 -28 -21 -80 -47z m1151 -62 c149 -62 269 -135 456 -277 148 -114 201
-172 253 -277 33 -67 42 -95 47 -161 5 -77 5 -82 -22 -113 -60 -72 -148 -92
-316 -73 -170 20 -327 81 -442 172 -73 57 -337 314 -337 326 0 7 10 15 22 19
18 5 35 -8 106 -85 240 -260 438 -366 709 -378 112 -5 125 -4 168 17 25 12 50
32 54 44 14 35 -7 145 -40 211 -47 97 -147 209 -283 316 -66 53 -137 105 -156
115 -19 11 -65 38 -101 61 -36 23 -96 56 -132 74 -58 27 -77 39 -63 39 2 0 36
-14 77 -30z m-1108 -439 c18 -16 42 -46 52 -65 22 -41 31 -44 40 -16 9 29 64
80 85 80 36 0 53 -29 47 -83 -10 -81 -113 -227 -161 -227 -28 0 -81 33 -101
63 -22 34 -54 130 -62 183 -5 38 -2 48 17 69 30 32 42 31 83 -4z"/>
<path d="M2467 3670 c-129 -20 -147 -25 -147 -39 0 -12 523 -6 528 6 5 13
-116 43 -193 48 -41 2 -118 -4 -188 -15z"/>
<path d="M3510 3671 c-73 -8 -134 -26 -148 -44 -8 -9 40 -12 209 -12 120 0
219 3 219 6 0 37 -153 64 -280 50z"/>
<path d="M4209 3540 c-53 -28 -111 -98 -107 -130 5 -38 31 -31 69 19 19 24 51
53 72 64 36 19 40 19 82 2 67 -25 92 5 36 44 -37 27 -103 27 -152 1z"/>
<path d="M1836 3434 c-9 -24 18 -44 58 -44 17 0 64 -10 104 -22 75 -22 102
-17 89 15 -8 22 -113 58 -183 64 -53 5 -62 3 -68 -13z"/>
<path d="M3422 3392 c-97 -35 -159 -118 -148 -199 8 -57 20 -80 59 -103 64
-39 180 -16 242 48 47 48 79 115 71 147 -6 22 -3 25 21 25 22 0 43 -16 94 -70
50 -54 68 -67 77 -58 17 17 15 33 -7 76 -22 43 -69 89 -125 122 -55 33 -207
39 -284 12z"/>
<path d="M4183 3386 c-18 -8 -33 -21 -33 -29 0 -22 23 -35 45 -26 36 14 99 9
131 -10 34 -21 54 -13 54 21 0 42 -135 72 -197 44z"/>
<path d="M2472 3361 c-119 -41 -193 -178 -137 -253 37 -49 106 -88 156 -88 55
0 130 43 153 89 20 37 20 123 1 176 -20 55 -20 54 28 43 59 -13 122 -46 153
-81 23 -26 28 -27 41 -14 19 19 6 46 -41 82 -83 64 -243 84 -354 46z"/>
<path d="M1956 3325 c-49 -19 -66 -33 -66 -55 0 -25 29 -33 56 -15 13 8 46 20
74 26 44 9 51 14 48 32 -4 28 -55 33 -112 12z"/>
<path d="M4003 2923 c20 -2 54 -2 75 0 20 2 3 4 -38 4 -41 0 -58 -2 -37 -4z"/>
<path d="M4080 2900 c0 -5 5 -10 11 -10 5 0 7 5 4 10 -3 6 -8 10 -11 10 -2 0
-4 -4 -4 -10z"/>
<path d="M3731 2834 c-21 -15 -22 -18 -6 -26 11 -7 21 -6 28 2 9 8 8 10 -5 5
-10 -4 -18 -4 -18 0 0 4 8 14 18 21 25 19 11 17 -17 -2z"/>
<path d="M2365 2780 c3 -5 8 -10 11 -10 2 0 4 5 4 10 0 6 -5 10 -11 10 -5 0
-7 -4 -4 -10z"/>
<path d="M3640 2744 c-16 -49 -9 -51 12 -3 9 21 13 39 8 39 -5 0 -14 -16 -20
-36z"/>
<path d="M3645 2686 c-3 -9 -7 -22 -9 -29 -2 -8 0 -20 5 -28 8 -12 9 -12 7 1
-1 8 2 25 6 38 4 13 5 26 2 29 -3 3 -8 -2 -11 -11z"/>
<path d="M2756 2675 c4 -8 8 -15 10 -15 2 0 4 7 4 15 0 8 -4 15 -10 15 -5 0
-7 -7 -4 -15z"/>
<path d="M3666 2662 c-7 -12 -11 -101 -4 -107 3 -4 8 21 10 54 3 62 3 67 -6
53z"/>
<path d="M3640 2540 c6 -11 13 -20 16 -20 2 0 0 9 -6 20 -6 11 -13 20 -16 20
-2 0 0 -9 6 -20z"/>
<path d="M3690 2471 c14 -11 30 -21 35 -21 11 0 -7 14 -40 31 -13 7 -12 3 5
-10z"/>
<path d="M3770 2470 c-18 -12 -2 -12 25 0 13 6 15 9 5 9 -8 0 -22 -4 -30 -9z"/>
<path d="M3745 2440 c-3 -5 -1 -10 4 -10 6 0 11 5 11 10 0 6 -2 10 -4 10 -3 0
-8 -4 -11 -10z"/>
<path d="M3780 2420 c8 -5 24 -10 35 -10 17 0 17 2 5 10 -8 5 -24 10 -35 10
-17 0 -17 -2 -5 -10z"/>
</g>
</svg>
